<?xml version="1.0" ?><svg enable-background="new 0 0 52 52" id="Layer_1" version="1.1" viewBox="0 0 52 52" xml:space="preserve" xmlns="http://www.w3.org/2000/svg" xmlns:xlink="http://www.w3.org/1999/xlink"><g><g><path d="M3.6839356,11.5671692c2.9316406-2.7617188,7.6972661-2.7617188,10.6289063,0    c0.1923828,0.1826172,0.4394531,0.2724609,0.6855469,0.2724609c0.265625,0,0.53125-0.1054688,0.7275391-0.3144531    c0.3789053-0.4013672,0.3603506-1.0341797-0.0419922-1.4130859c-3.6855469-3.4765625-9.6855469-3.4765625-13.3710938,0    c-0.4023436,0.3789063-0.4208983,1.0117188-0.0419922,1.4130859C2.649756,11.9275208,3.283545,11.9460754,3.6839356,11.5671692z" fill="#3A92CC"/></g><g><path d="M12.9983892,15.0974426c0.2460938,0,0.4931641-0.0898438,0.6855469-0.2724609    c0.4023438-0.3789063,0.4208984-1.0117188,0.0419922-1.4130859c-1.2587891-1.3369141-2.9384766-2.0722656-4.7275391-2.0722656    s-3.4687505,0.7353516-4.7275395,2.0722656c-0.3789063,0.4013672-0.3603516,1.0341797,0.0419922,1.4130859    c0.4003906,0.3798828,1.0341797,0.3603516,1.4130859-0.0419922c0.8779297-0.9306641,2.0400391-1.4433594,3.2724614-1.4433594    s2.3945313,0.5126953,3.2724609,1.4433594C12.4671392,14.9919739,12.7327642,15.0974426,12.9983892,15.0974426z" fill="#3A92CC"/></g><g><path d="M6.227881,16.7019348c-0.3515625,0.4248047-0.2929688,1.0556641,0.1328125,1.4082031    c0.4257813,0.3535156,1.0556641,0.2929688,1.4082031-0.1328125c0.679688-0.8222656,1.7792974-0.8222656,2.4589849,0    c0.1982422,0.2392578,0.4833984,0.3623047,0.7714844,0.3623047c0.2246094,0,0.4501953-0.0751953,0.6367188-0.2294922    c0.4257813-0.3525391,0.484375-0.9833984,0.1328125-1.4082031c-0.7285156-0.8789063-1.7119141-1.3623047-2.7705078-1.3623047    S6.9563966,15.8230286,6.227881,16.7019348z" fill="#3A92CC"/></g><g><path d="M46.9215469,30.4953308H9.9983892v-9.9984741c0-0.5527344-0.4472656-1-1-1s-1.0000005,0.4472656-1.0000005,1v9.9984741    H5.0815797c-1.7000122,0-3.0800171,1.3800049-3.0800171,3.0800171v7.8399658c0,1.7000122,1.3800049,3.0800171,3.0800171,3.0800171    h41.8399658c1.7000122,0,3.0800171-1.3800049,3.0800171-3.0800171v-7.8399658    C50.001564,31.8753357,48.6215591,30.4953308,46.9215469,30.4953308z M7.9983888,40.4968567h-1c-0.5527344,0-1-0.4472656-1-1    s0.4472656-1,1-1h1c0.5527349,0,1.0000005,0.4472656,1.0000005,1S8.5511236,40.4968567,7.9983888,40.4968567z     M12.4983892,40.4968567h-1c-0.5527344,0-1-0.4472656-1-1s0.4472656-1,1-1h1c0.5527344,0,1,0.4472656,1,1    S13.0511236,40.4968567,12.4983892,40.4968567z M16.9983883,40.4968567h-0.999999c-0.5527344,0-1-0.4472656-1-1s0.4472656-1,1-1    h0.999999c0.5527344,0,1,0.4472656,1,1S17.5511227,40.4968567,16.9983883,40.4968567z M21.4983883,40.4968567h-1    c-0.5527344,0-1-0.4472656-1-1s0.4472656-1,1-1h1c0.5527344,0,1,0.4472656,1,1S22.0511227,40.4968567,21.4983883,40.4968567z     M45.001564,36.7453308c-0.6900024,0-1.25-0.5599976-1.25-1.25s0.5599976-1.25,1.25-1.25s1.25,0.5599976,1.25,1.25    S45.6915665,36.7453308,45.001564,36.7453308z"/></g></g></svg>