<?xml version="1.0" ?><svg data-name="Layer 1" id="Layer_1" viewBox="0 0 140 140" xmlns="http://www.w3.org/2000/svg"><defs><style>.cls-1{fill:#52b1b1;}.cls-2{fill:#525354;}.cls-3{fill:#d7dadb;}</style></defs><title/><circle class="cls-1" cx="70" cy="70" r="64"/><circle class="cls-2" cx="70" cy="103.5" r="10"/><path class="cls-2" d="M84.61,88.46a1,1,0,0,1-1.39,0,20,20,0,0,0-26.43,0,1,1,0,0,1-1.39,0L49.8,82.73a1,1,0,0,1,0-1.44,30,30,0,0,1,40.33,0,1,1,0,0,1,0,1.44Z"/><path class="cls-2" d="M100.52,72.53a1,1,0,0,1-1.4,0,42.52,42.52,0,0,0-58.25,0,1,1,0,0,1-1.4,0l-5.61-5.71a1,1,0,0,1,0-1.43,52.51,52.51,0,0,1,72.23,0,1,1,0,0,1,0,1.43Z"/><path class="cls-2" d="M114.66,58.38a1,1,0,0,1-1.4,0,62.51,62.51,0,0,0-86.52,0,1,1,0,0,1-1.4,0l-5.63-5.69a1,1,0,0,1,0-1.43,72.51,72.51,0,0,1,100.54,0,1,1,0,0,1,0,1.43Z"/><circle class="cls-3" cx="70" cy="102.5" r="10"/><path class="cls-3" d="M84.61,87.46a1,1,0,0,1-1.39,0,20,20,0,0,0-26.43,0,1,1,0,0,1-1.39,0L49.8,81.73a1,1,0,0,1,0-1.44,30,30,0,0,1,40.33,0,1,1,0,0,1,0,1.44Z"/><path class="cls-3" d="M100.52,71.53a1,1,0,0,1-1.4,0,42.52,42.52,0,0,0-58.25,0,1,1,0,0,1-1.4,0l-5.61-5.71a1,1,0,0,1,0-1.43,52.51,52.51,0,0,1,72.23,0,1,1,0,0,1,0,1.43Z"/><path class="cls-3" d="M114.66,57.38a1,1,0,0,1-1.4,0,62.51,62.51,0,0,0-86.52,0,1,1,0,0,1-1.4,0l-5.63-5.69a1,1,0,0,1,0-1.43,72.51,72.51,0,0,1,100.54,0,1,1,0,0,1,0,1.43Z"/></svg>